<?xml version="1.0" encoding="UTF-8" standalone="no"?><!DOCTYPE svg PUBLIC "-//W3C//DTD SVG 1.1//EN" "http://www.w3.org/Graphics/SVG/1.1/DTD/svg11.dtd">
<svg width="100%" height="100%" viewBox="0 0 484 753" version="1.1" xmlns="http://www.w3.org/2000/svg"
     xml:space="preserve"
     style="fill-rule:evenodd;clip-rule:evenodd;stroke-linecap:round;stroke-linejoin:round;stroke-miterlimit:1.5;"><rect id="Artboard1" x="0" y="0" width="483.801" height="752.58" style="fill:none;"/><g><path d="M242.702,745.634c-0,0 -234.964,-351.391 -234.964,-501.987c-0,-129.681 105.284,-234.965 234.964,-234.965c129.68,0 234.964,105.284 234.964,234.965c0,150.596 -234.964,501.987 -234.964,501.987Zm-0,-308.506c-24.469,0 -44.335,19.866 -44.335,44.335c0,24.469 19.866,44.335 44.335,44.335c24.469,-0 44.335,-19.866 44.335,-44.335c-0,-24.469 -19.866,-44.335 -44.335,-44.335Zm-0,-327.805c-64.056,0 -116.062,52.006 -116.062,116.062c0,64.056 52.006,116.062 116.062,116.062c64.056,-0 116.062,-52.006 116.062,-116.062c-0,-64.056 -52.006,-116.062 -116.062,-116.062Zm94.148,250.642c-17.918,-0 -32.465,14.547 -32.465,32.465c0,17.918 14.547,32.465 32.465,32.465c17.918,-0 32.465,-14.547 32.465,-32.465c-0,-17.918 -14.547,-32.465 -32.465,-32.465Z" style="fill:#9b2424;stroke:#000;stroke-width:10.68px;"/></g></svg>